<?xml version="1.0" standalone="no"?><!DOCTYPE svg PUBLIC "-//W3C//DTD SVG 1.1//EN" "http://www.w3.org/Graphics/SVG/1.1/DTD/svg11.dtd"><svg class="icon" width="200px" height="200.00px" viewBox="0 0 1024 1024" version="1.1" xmlns="http://www.w3.org/2000/svg"><path d="M355.26 795.92H217.42A88.52 88.52 0 0 1 129 707.49V381.23a88.52 88.52 0 0 1 88.42-88.43H753a88.53 88.53 0 0 1 88.43 88.43v145.1a22.5 22.5 0 0 1-45 0v-145.1A43.48 43.48 0 0 0 753 337.8H217.42A43.47 43.47 0 0 0 174 381.23v326.26a43.47 43.47 0 0 0 43.42 43.43h137.84a22.5 22.5 0 0 1 0 45z"  /><path d="M661.12 327.47a22.5 22.5 0 0 1-22.5-22.5V219.3a11.84 11.84 0 0 0-11.83-11.83h-283.2a11.84 11.84 0 0 0-11.83 11.83V305a22.5 22.5 0 0 1-45 0v-85.7a56.89 56.89 0 0 1 56.83-56.83h283.2a56.89 56.89 0 0 1 56.83 56.83V305a22.5 22.5 0 0 1-22.5 22.47z"  /><path d="M558.06 878.56a88.79 88.79 0 0 1-20.34-2.39 90.24 90.24 0 0 1-31.1-13.72l-0.69-0.52-62-49.7a56.12 56.12 0 0 1 44.36-99.13 232 232 0 0 1 42.83 11.56L588 694.92l-118.86-85.11-0.33-0.24c-13.3-9.89-19.74-28.49-16.4-47.37 2.92-16.51 13-28.86 27.07-33 53.37-15.9 83.92 1.81 92.24 7.8l147.52 86.78a1.43 1.43 0 0 0 1.21 0.1l83.71-31.2 0.77-0.27c71.58-23.76 96.3 7.64 101.81 16.89 8.9 13.82 11.79 29 8.35 43.88-6.6 28.51-34.14 45.71-37.67 47.81l-269.8 162.07c-15.45 10.27-32.29 15.5-49.56 15.5z m-24.55-52.21c3.66 2.47 25.14 15.44 49.48-1 0.32-0.22 0.65-0.43 1-0.63l270.3-162.37c4.8-2.95 15.12-11.47 16.89-19.37 0.45-2 0.57-4.86-2.48-9.5-0.18-0.27-0.36-0.55-0.53-0.84-3-3.07-17-8.11-48.76 2.37l-83.32 31a46.23 46.23 0 0 1-39.74-3.49l-148.6-87.41a11.42 11.42 0 0 1-2.84-1.94c-2.47-1.59-17.62-10.12-48.39-2.08a11 11 0 0 0 0.27 3.23l128.27 91.85a36.72 36.72 0 0 1-4.36 62.39l-78 40.82a22.49 22.49 0 0 1-20 0.43 182.56 182.56 0 0 0-41.7-12.32 10.64 10.64 0 0 0-12.09 6.51c-1.3 2.91-2.61 8.5 3.21 13.16zM867.4 631z m0 0z m0 0z m0 0z" fill="#EA460C" /></svg>