<?xml version="1.0" standalone="no"?><!DOCTYPE svg PUBLIC "-//W3C//DTD SVG 1.1//EN" "http://www.w3.org/Graphics/SVG/1.1/DTD/svg11.dtd"><svg class="icon" width="200px" height="200.00px" viewBox="0 0 1024 1024" version="1.1" xmlns="http://www.w3.org/2000/svg"><path d="M722.51 874H486.13a77.81 77.81 0 0 1-41.55-12 77.91 77.91 0 0 1-22.65-15.76L266.47 690.82A78.15 78.15 0 1 1 377 580.3l31 31V391.75a78.15 78.15 0 1 1 156.3 0V537h158.21a78.24 78.24 0 0 1 78.15 78.15v180.7A78.24 78.24 0 0 1 722.51 874zM321.73 602.41A33.15 33.15 0 0 0 298.29 659l155.46 155.46a33.2 33.2 0 0 0 10.41 7 23.12 23.12 0 0 1 3.63 2 32.92 32.92 0 0 0 18.34 5.54h236.38a33.19 33.19 0 0 0 33.15-33.15v-180.7A33.19 33.19 0 0 0 722.51 582H541.78a22.5 22.5 0 0 1-22.5-22.5V391.75a33.15 33.15 0 0 0-66.3 0v273.86a22.5 22.5 0 0 1-38.41 15.91l-69.4-69.4a32.93 32.93 0 0 0-23.44-9.71z"  /><path d="M362.91 488.36a22.47 22.47 0 0 1-18.66-9.89 170.38 170.38 0 0 1-29.32-95.84c0-94.4 76.8-171.2 171.2-171.2s171.2 76.8 171.2 171.2a170.86 170.86 0 0 1-25.19 89.43 22.5 22.5 0 0 1-38.36-23.53 126.2 126.2 0 1 0-212.26 4.72 22.49 22.49 0 0 1-18.61 35.11z" fill="#EA460C" /><path d="M281.17 515.24a22.5 22.5 0 0 1-19.83-11.84 255.11 255.11 0 1 1 463.72-31.13 22.5 22.5 0 1 1-42.13-15.81 209.51 209.51 0 0 0 13.33-73.83c0-115.87-94.27-210.13-210.13-210.13S276 266.76 276 382.63a210.38 210.38 0 0 0 25 99.44 22.52 22.52 0 0 1-19.8 33.17z"  /></svg>