<?xml version="1.0" standalone="no"?><!DOCTYPE svg PUBLIC "-//W3C//DTD SVG 1.1//EN" "http://www.w3.org/Graphics/SVG/1.1/DTD/svg11.dtd"><svg class="icon" width="200px" height="200.00px" viewBox="0 0 1024 1024" version="1.1" xmlns="http://www.w3.org/2000/svg"><path d="M634.73 532H382.05a22.5 22.5 0 1 1 0-45h252.68a22.5 22.5 0 0 1 0 45z" fill="#EA460C" /><path d="M508.39 658.35a22.5 22.5 0 0 1-22.5-22.5V383.17a22.5 22.5 0 1 1 45 0v252.68a22.5 22.5 0 0 1-22.5 22.5z" fill="#EA460C" /><path d="M508.39 830.51a321 321 0 1 1 227-94 318.9 318.9 0 0 1-227 94z m0-597a276 276 0 1 0 195.16 80.83 274.18 274.18 0 0 0-195.16-80.83z"  /></svg>