<?xml version="1.0" standalone="no"?><!DOCTYPE svg PUBLIC "-//W3C//DTD SVG 1.1//EN" "http://www.w3.org/Graphics/SVG/1.1/DTD/svg11.dtd"><svg class="icon" width="200px" height="200.00px" viewBox="0 0 1024 1024" version="1.1" xmlns="http://www.w3.org/2000/svg"><path d="M840.74 416.42H191.48a55.32 55.32 0 0 1-55.26-55.26v-43.28a55.32 55.32 0 0 1 55.26-55.26h107.64a41.45 41.45 0 0 1 0.62-7.42l7.57-42.92a40.41 40.41 0 0 1 46.81-32.77 18.63 18.63 0 0 1 2.65 0.65L508.36 229a25.18 25.18 0 0 0 15.5 0l151.58-48.82a18.76 18.76 0 0 1 2.66-0.65 40.41 40.41 0 0 1 46.81 32.77l7.56 42.92a40.69 40.69 0 0 1 0.62 7.42h107.65A55.32 55.32 0 0 1 896 317.88v43.28a55.32 55.32 0 0 1-55.26 55.26z m-649.26-113.8a15.27 15.27 0 0 0-15.26 15.26v43.28a15.28 15.28 0 0 0 15.26 15.26h649.26A15.28 15.28 0 0 0 856 361.16v-43.28a15.28 15.28 0 0 0-15.26-15.26H696.25a20.16 20.16 0 0 1-3.5-40 0.4 0.4 0 0 0 0.33-0.47l-7.57-42.91a0.31 0.31 0 0 0-0.13-0.24l-149.26 48.06a65 65 0 0 1-40 0L346.84 219a0.32 0.32 0 0 0-0.14 0.24l-7.57 42.92a0.35 0.35 0 0 0 0.07 0.3 0.36 0.36 0 0 0 0.26 0.16 20.16 20.16 0 0 1-3.5 40z m508.26-0.62zM749.5 837.79H284c-49.19 0-89.21-38.37-89.21-85.53V481a20 20 0 0 1 40 0v271.26c0 25.11 22.08 45.53 49.21 45.53h465.5c26.43 0 47.94-19.89 47.94-44.34V481a20 20 0 0 1 40 0v272.45c0 46.55-39.44 84.34-87.94 84.34z"  /><path d="M469.69 740.58a22.5 22.5 0 0 1-22.5-22.5V481a22.5 22.5 0 0 1 45 0v237.08a22.51 22.51 0 0 1-22.5 22.5zM562.69 740.58a22.5 22.5 0 0 1-22.5-22.5V481a22.5 22.5 0 0 1 45 0v237.08a22.51 22.51 0 0 1-22.5 22.5z" fill="#EA460C" /></svg>